HIERARCHY
ROOT Hips
{
	OFFSET 0.000000 71.427986 0.000000
	CHANNELS 6 Xposition Yposition Zposition Xrotation Yrotation Zrotation
	JOINT Pelvis
	{
		OFFSET 0.000000 0.000000 0.000000
		CHANNELS 3 Xrotation Yrotation Zrotation
		JOINT LeftUpLeg
		{
			OFFSET 6.797100 -2.508499 -1.318700
			CHANNELS 3 Xrotation Yrotation Zrotation
			JOINT LeftLeg
			{
				OFFSET 0.069008 -29.241863 0.690200
				CHANNELS 3 Xrotation Yrotation Zrotation
				JOINT LeftFoot
				{
					OFFSET -0.069008 -29.568123 -0.266800
					CHANNELS 3 Xrotation Yrotation Zrotation
					JOINT LeftToeBase
					{
						OFFSET 3.145500 -8.631000 16.059900
						CHANNELS 3 Xrotation Yrotation Zrotation
						End Site
						{
							OFFSET 0.000000 18.501587 0.000000
						}
					}
				}
			}
			JOINT Left_ShortSleeve
			{
				OFFSET 0.265923 -10.480953 1.153800
				CHANNELS 3 Xrotation Yrotation Zrotation
				End Site
				{
					OFFSET 1.725763 19.823879 0.000000
				}
			}
		}
		JOINT RightUpLeg
		{
			OFFSET -6.797100 -2.508499 -1.318700
			CHANNELS 3 Xrotation Yrotation Zrotation
			JOINT RightLeg
			{
				OFFSET -0.082453 -29.241932 0.688000
				CHANNELS 3 Xrotation Yrotation Zrotation
				JOINT RightFoot
				{
					OFFSET 0.082453 -29.568058 -0.264600
					CHANNELS 3 Xrotation Yrotation Zrotation
					JOINT RightToeBase
					{
						OFFSET -3.115300 -8.682800 16.113400
						CHANNELS 3 Xrotation Yrotation Zrotation
						End Site
						{
							OFFSET 0.000000 18.567114 0.000000
						}
					}
				}
			}
			JOINT Right_ShortSleeve
			{
				OFFSET -0.265923 -10.480953 1.153800
				CHANNELS 3 Xrotation Yrotation Zrotation
				End Site
				{
					OFFSET -1.725766 19.823910 0.000000
				}
			}
		}
	}
	JOINT Spine
	{
		OFFSET 0.000000 13.368103 0.470500
		CHANNELS 3 Xrotation Yrotation Zrotation
		JOINT Spine1
		{
			OFFSET 0.147000 13.837402 0.538800
			CHANNELS 3 Xrotation Yrotation Zrotation
			JOINT Spine2
			{
				OFFSET 0.168000 16.242897 -1.435500
				CHANNELS 3 Xrotation Yrotation Zrotation
				JOINT Neck
				{
					OFFSET 0.217200 18.631500 -1.679100
					CHANNELS 3 Xrotation Yrotation Zrotation
					JOINT Head
					{
						OFFSET 0.000000 6.599396 1.385900
						CHANNELS 3 Xrotation Yrotation Zrotation
						JOINT Hat
						{
							OFFSET -0.532200 27.220596 -10.096100
							CHANNELS 3 Xrotation Yrotation Zrotation
							End Site
							{
								OFFSET 0.000000 22.029861 0.000000
							}
						}
						JOINT HairD
						{
							OFFSET -10.777400 17.437393 -1.325900
							CHANNELS 3 Xrotation Yrotation Zrotation
							JOINT HairD1
							{
								OFFSET -3.290299 -11.051193 1.062200
								CHANNELS 3 Xrotation Yrotation Zrotation
								End Site
								{
									OFFSET 0.000000 11.579437 0.000000
								}
							}
						}
						JOINT HairB
						{
							OFFSET -10.777400 17.437393 1.467900
							CHANNELS 3 Xrotation Yrotation Zrotation
							JOINT HairB1
							{
								OFFSET -1.561200 -12.956299 3.590200
								CHANNELS 3 Xrotation Yrotation Zrotation
								End Site
								{
									OFFSET 0.000000 13.534866 0.000000
								}
							}
						}
						JOINT HairA
						{
							OFFSET 9.713100 17.437393 1.467900
							CHANNELS 3 Xrotation Yrotation Zrotation
							JOINT HairA1
							{
								OFFSET 1.561200 -12.956299 3.590200
								CHANNELS 3 Xrotation Yrotation Zrotation
								End Site
								{
									OFFSET 0.000000 13.534866 0.000000
								}
							}
						}
						JOINT HairC
						{
							OFFSET 9.713100 17.437393 -1.325900
							CHANNELS 3 Xrotation Yrotation Zrotation
							JOINT HairC1
							{
								OFFSET 3.290300 -11.051193 1.062200
								CHANNELS 3 Xrotation Yrotation Zrotation
								End Site
								{
									OFFSET 0.000000 11.579437 0.000000
								}
							}
						}
					}
				}
				JOINT LeftShoulder
				{
					OFFSET 5.101800 15.108002 -2.763700
					CHANNELS 3 Xrotation Yrotation Zrotation
					JOINT LeftArm
					{
						OFFSET 9.825497 2.506317 -1.597400
						CHANNELS 3 Xrotation Yrotation Zrotation
						JOINT LeftForeArm
						{
							OFFSET 21.966244 0.000000 0.000000
							CHANNELS 3 Xrotation Yrotation Zrotation
							JOINT LeftHand
							{
								OFFSET 33.879036 0.000000 0.000000
								CHANNELS 3 Xrotation Yrotation Zrotation
								JOINT LeftHandThumb1
								{
									OFFSET 6.715286 -2.359680 3.363841
									CHANNELS 3 Xrotation Yrotation Zrotation
									JOINT LeftHandThumb2
									{
										OFFSET 2.507072 -1.447464 1.447461
										CHANNELS 3 Xrotation Yrotation Zrotation
										JOINT LeftHandThumb3
										{
											OFFSET 2.898338 -1.673355 1.673357
											CHANNELS 3 Xrotation Yrotation Zrotation
											End Site
											{
												OFFSET -0.295959 3.727692 -0.131651
											}
										}
									}
								}
								JOINT LeftHandIndex1
								{
									OFFSET 14.190811 -0.254547 3.840278
									CHANNELS 3 Xrotation Yrotation Zrotation
									JOINT LeftHandIndex2
									{
										OFFSET 3.551727 0.000000 -0.000000
										CHANNELS 3 Xrotation Yrotation Zrotation
										JOINT LeftHandIndex3
										{
											OFFSET 2.894196 0.000000 0.000000
											CHANNELS 3 Xrotation Yrotation Zrotation
											End Site
											{
												OFFSET -1.000603 2.690872 0.366626
											}
										}
									}
								}
								JOINT LeftHandMiddle1
								{
									OFFSET 13.776489 0.000000 0.000000
									CHANNELS 3 Xrotation Yrotation Zrotation
									JOINT LeftHandMiddle2
									{
										OFFSET 3.438232 0.000000 0.000000
										CHANNELS 3 Xrotation Yrotation Zrotation
										JOINT LeftHandMiddle3
										{
											OFFSET 3.691551 0.000000 0.000000
											CHANNELS 3 Xrotation Yrotation Zrotation
											End Site
											{
												OFFSET -1.082298 3.499527 0.457670
											}
										}
									}
								}
								JOINT LeftHandRing1
								{
									OFFSET 13.966164 -0.268127 -3.067488
									CHANNELS 3 Xrotation Yrotation Zrotation
									JOINT LeftHandRing2
									{
										OFFSET 3.162567 0.000000 0.000000
										CHANNELS 3 Xrotation Yrotation Zrotation
										JOINT LeftHandRing3
										{
											OFFSET 3.324348 0.000000 0.000000
											CHANNELS 3 Xrotation Yrotation Zrotation
											End Site
											{
												OFFSET -0.861900 3.184998 0.405154
											}
										}
									}
								}
								JOINT LeftHandPinky1
								{
									OFFSET 13.131393 -0.168503 -5.746925
									CHANNELS 3 Xrotation Yrotation Zrotation
									JOINT LeftHandPinky2
									{
										OFFSET 2.849182 0.000000 0.000000
										CHANNELS 3 Xrotation Yrotation Zrotation
										JOINT LeftHandPinky3
										{
											OFFSET 2.805038 0.000000 0.000000
											CHANNELS 3 Xrotation Yrotation Zrotation
											End Site
											{
												OFFSET -0.882500 2.642609 0.325652
											}
										}
									}
								}
							}
							JOINT Left_Sleeve
							{
								OFFSET 6.592125 -0.646545 0.805568
								CHANNELS 3 Xrotation Yrotation Zrotation
								End Site
								{
									OFFSET -0.000179 20.275787 -0.000000
								}
							}
						}
					}
				}
				JOINT RightShoulder
				{
					OFFSET -5.731700 15.108002 -2.763700
					CHANNELS 3 Xrotation Yrotation Zrotation
					JOINT RightArm
					{
						OFFSET -9.825497 2.506317 -1.597400
						CHANNELS 3 Xrotation Yrotation Zrotation
						JOINT RightForeArm
						{
							OFFSET -21.966242 0.000000 0.000000
							CHANNELS 3 Xrotation Yrotation Zrotation
							JOINT RightHand
							{
								OFFSET -33.879032 0.000000 0.000000
								CHANNELS 3 Xrotation Yrotation Zrotation
								JOINT RightHandThumb1
								{
									OFFSET -6.715286 -2.359680 3.363841
									CHANNELS 3 Xrotation Yrotation Zrotation
									JOINT RightHandThumb2
									{
										OFFSET -2.507072 -1.447464 1.447461
										CHANNELS 3 Xrotation Yrotation Zrotation
										JOINT RightHandThumb3
										{
											OFFSET -2.898338 -1.673355 1.673357
											CHANNELS 3 Xrotation Yrotation Zrotation
											End Site
											{
												OFFSET 0.295959 3.727692 -0.131651
											}
										}
									}
								}
								JOINT RightHandIndex1
								{
									OFFSET -14.190811 -0.254547 3.840278
									CHANNELS 3 Xrotation Yrotation Zrotation
									JOINT RightHandIndex2
									{
										OFFSET -3.551727 0.000000 -0.000000
										CHANNELS 3 Xrotation Yrotation Zrotation
										JOINT RightHandIndex3
										{
											OFFSET -2.894196 0.000000 0.000000
											CHANNELS 3 Xrotation Yrotation Zrotation
											End Site
											{
												OFFSET 1.000603 2.690872 0.366626
											}
										}
									}
								}
								JOINT RightHandMiddle1
								{
									OFFSET -13.776489 0.000000 0.000000
									CHANNELS 3 Xrotation Yrotation Zrotation
									JOINT RightHandMiddle2
									{
										OFFSET -3.438232 0.000000 0.000000
										CHANNELS 3 Xrotation Yrotation Zrotation
										JOINT RightHandMiddle3
										{
											OFFSET -3.691551 0.000000 0.000000
											CHANNELS 3 Xrotation Yrotation Zrotation
											End Site
											{
												OFFSET 1.082298 3.499527 0.457670
											}
										}
									}
								}
								JOINT RightHandRing1
								{
									OFFSET -13.966164 -0.268127 -3.067488
									CHANNELS 3 Xrotation Yrotation Zrotation
									JOINT RightHandRing2
									{
										OFFSET -3.162567 0.000000 0.000000
										CHANNELS 3 Xrotation Yrotation Zrotation
										JOINT RightHandRing3
										{
											OFFSET -3.324348 0.000000 0.000000
											CHANNELS 3 Xrotation Yrotation Zrotation
											End Site
											{
												OFFSET 0.861900 3.184998 0.405154
											}
										}
									}
								}
								JOINT RightHandPinky1
								{
									OFFSET -13.131393 -0.168503 -5.746925
									CHANNELS 3 Xrotation Yrotation Zrotation
									JOINT RightHandPinky2
									{
										OFFSET -2.849182 0.000000 0.000000
										CHANNELS 3 Xrotation Yrotation Zrotation
										JOINT RightHandPinky3
										{
											OFFSET -2.805038 0.000000 0.000000
											CHANNELS 3 Xrotation Yrotation Zrotation
											End Site
											{
												OFFSET 0.882500 2.642609 0.325652
											}
										}
									}
								}
							}
							JOINT Right_Sleeve
							{
								OFFSET -6.592125 -0.646545 0.805568
								CHANNELS 3 Xrotation Yrotation Zrotation
								End Site
								{
									OFFSET 0.000179 20.275787 -0.000000
								}
							}
						}
					}
				}
				JOINT Bind_Right_JacketString
				{
					OFFSET -3.534800 11.969597 7.200700
					CHANNELS 3 Xrotation Yrotation Zrotation
					JOINT Bind_Right_JacketString1
					{
						OFFSET -0.319900 -6.102600 2.794100
						CHANNELS 3 Xrotation Yrotation Zrotation
						End Site
						{
							OFFSET 0.000000 6.719452 0.000000
						}
					}
				}
				JOINT Bind_Left_JacketString
				{
					OFFSET 2.904800 11.969597 7.200700
					CHANNELS 3 Xrotation Yrotation Zrotation
					JOINT Bind_Left_JacketString1
					{
						OFFSET 0.364800 -5.904503 3.186800
						CHANNELS 3 Xrotation Yrotation Zrotation
						End Site
						{
							OFFSET 0.000000 6.719513 0.000000
						}
					}
				}
				JOINT HairE
				{
					OFFSET 5.915200 17.612701 -11.592200
					CHANNELS 3 Xrotation Yrotation Zrotation
					JOINT HairE1
					{
						OFFSET 0.289200 -7.171898 -1.284500
						CHANNELS 3 Xrotation Yrotation Zrotation
						End Site
						{
							OFFSET 0.000000 7.291756 0.000000
						}
					}
				}
				JOINT HairF
				{
					OFFSET -0.864800 17.612701 -11.592200
					CHANNELS 3 Xrotation Yrotation Zrotation
					JOINT HairF1
					{
						OFFSET 0.000000 -14.087097 -2.127501
						CHANNELS 3 Xrotation Yrotation Zrotation
						End Site
						{
							OFFSET 0.000000 14.246841 0.000000
						}
					}
				}
				JOINT HairG
				{
					OFFSET -8.087700 17.612701 -11.592200
					CHANNELS 3 Xrotation Yrotation Zrotation
					JOINT HairG1
					{
						OFFSET -0.293600 -6.081398 -0.910100
						CHANNELS 3 Xrotation Yrotation Zrotation
						End Site
						{
							OFFSET 0.000000 6.156120 0.000000
						}
					}
				}
			}
		}
	}
	JOINT Pouch
	{
		OFFSET 0.000000 4.394501 10.847300
		CHANNELS 3 Xrotation Yrotation Zrotation
		End Site
		{
			OFFSET 0.000000 21.880577 0.000000
		}
	}
	JOINT Bag
	{
		OFFSET -13.229000 4.813004 -0.593300
		CHANNELS 3 Xrotation Yrotation Zrotation
		End Site
		{
			OFFSET 0.000000 21.880577 0.000000
		}
	}
	JOINT OccupyGuyFacialAnim_Joint
	{
		OFFSET 1.000000 -70.206398 -1.655000
		CHANNELS 3 Xrotation Yrotation Zrotation
		End Site
		{
			OFFSET 0.000000 21.880577 0.000000
		}
	}
}
MOTION
Frames: 4
Frame Time: 0.033333
-0.040952 67.626678 0.017397 5.048659 -15.584005 0.097365 -0.000000 -0.000001 -0.000000 -32.149680 3.468418 8.976394 31.582829 4.743434 1.578282 -3.826285 0.568796 -6.010020 0.000000 0.000000 -0.000000 0.000004 0.000001 0.000001 -15.059076 -10.960020 -11.515980 32.881927 -6.406955 1.588948 -20.353914 -2.425465 10.593307 0.000000 0.000002 -0.000000 -0.000000 -0.000002 -0.000000 23.085901 4.341042 -0.217417 3.699077 1.240285 -0.840910 3.692177 1.313818 -0.845958 -12.698310 1.122657 2.284725 -14.088207 7.830452 -3.299422 0.000000 -0.000000 0.000000 0.000000 -0.000000 0.000000 0.000000 -0.000000 0.000000 0.000000 -0.000000 -0.000000 -0.000000 -0.000000 -0.000000 0.000000 -0.000000 -0.000000 -0.000000 -0.000000 -0.000000 0.000000 -0.000000 0.000000 0.000000 -0.000000 0.000000 7.812700 -20.949874 9.748533 -33.643586 -3.123701 -85.447169 0.000019 -42.998165 -4.823145 -17.287064 -10.866613 -12.599018 -7.471922 1.860683 -7.166927 30.987004 27.310513 -4.510886 0.000001 -0.000000 -0.000001 -4.707364 11.366721 -75.214446 -0.816391 3.073982 -46.874642 0.000001 -0.000000 0.000002 1.623363 16.580959 -84.691272 0.018013 0.022042 -72.884853 0.000002 -0.000000 -0.000001 -6.443162 23.132628 -76.210172 0.013026 0.971903 -51.002631 -0.000001 0.000001 -0.000002 -17.098974 22.128963 -43.123181 0.019739 0.027030 -78.662906 0.000001 -0.000001 -0.000003 -0.000000 0.000001 0.000002 13.916954 27.241158 -23.493028 -43.128799 -5.410726 84.810944 0.000009 58.104276 5.767378 -18.204759 16.096592 8.636270 9.347186 2.810544 -11.364520 16.169076 -43.266001 15.843580 -0.000002 -0.000001 0.000001 17.076798 -0.396555 31.924335 -0.204654 -0.283730 112.812773 -0.000002 0.000001 -0.000001 9.205486 -5.035906 102.738080 0.014967 -0.019214 61.018478 0.000001 -0.000001 -0.000001 5.569119 -8.935195 107.329101 0.542167 -0.010888 41.263717 -0.000000 -0.000004 0.000000 6.511249 -17.148264 98.228010 0.007427 -0.015755 43.845723 -0.000000 0.000001 -0.000001 -0.000000 0.000003 0.000001 0.000001 0.000000 0.000000 0.000003 0.000000 0.000000 0.000001 0.000000 0.000000 0.000001 0.000000 0.000000 0.000001 0.000000 0.000000 0.000003 0.000000 0.000000 0.000001 0.000000 0.000000 0.000001 0.000000 0.000000 0.000001 0.000000 0.000000 0.000003 0.000000 0.000000 -0.000000 -0.000001 -0.000000 -0.000000 -0.000001 -0.000000 -0.000000 -0.000001 -0.000000 
-0.086236 67.557137 -0.050188 5.382203 -14.804637 0.276490 0.000000 0.000000 0.000000 -32.546890 2.405704 8.438513 31.570972 5.459043 1.614071 -3.594186 0.617921 -6.222538 0.000000 -0.000000 0.000000 0.000001 -0.000001 -0.000000 -15.911696 -12.254787 -12.412293 33.706830 -6.152759 2.256380 -20.710766 -1.681315 10.265793 -0.000000 -0.000004 -0.000000 -0.000000 -0.000001 -0.000000 23.681070 3.079636 -0.543159 3.136883 1.941302 -0.863430 3.082421 2.011321 -0.832802 -12.989210 0.364665 2.717870 -13.859548 6.845993 -3.878578 0.000000 0.000000 -0.000000 0.000000 0.000000 -0.000000 0.000000 0.000000 -0.000000 0.000000 0.000000 -0.000000 0.000000 -0.000000 -0.000000 0.000000 0.000000 -0.000000 0.000000 -0.000000 -0.000000 0.000000 0.000000 -0.000000 0.000000 0.000000 -0.000000 5.559447 -23.108347 8.918172 -30.416274 -1.470378 -85.360043 0.000014 -42.886870 -3.045986 -16.138981 -10.456361 -14.238373 -7.551986 3.389295 -7.558339 31.406412 25.557224 -2.445288 0.000001 0.000002 -0.000002 -3.548730 10.848936 -76.686099 -0.619987 2.959319 -47.014525 0.000000 -0.000002 0.000001 2.091973 16.161317 -85.519863 0.017989 0.022016 -72.803710 0.000001 0.000001 -0.000001 -6.063905 21.805186 -76.814445 -0.024588 0.995044 -52.379129 -0.000000 0.000001 0.000001 -16.223018 21.305896 -46.236088 0.009974 0.206448 -78.031694 0.000001 0.000001 0.000005 0.000002 0.000001 0.000000 14.715723 24.556919 -24.115569 -45.120793 -3.830922 86.816868 0.000049 57.112573 6.415665 -18.515782 16.751519 5.466625 9.568859 1.862988 -11.124421 16.342962 -43.482832 16.051332 -0.000001 0.000004 -0.000002 17.104226 0.841309 31.598217 -0.323268 -0.362087 112.814870 -0.000001 0.000000 0.000000 9.261283 -4.937463 102.790905 0.014969 -0.019217 61.018478 0.000000 0.000000 -0.000001 5.548809 -8.973752 107.421336 0.542167 -0.010887 41.263714 -0.000000 -0.000001 0.000001 6.639030 -17.065571 98.448209 0.007422 -0.015753 43.845716 -0.000001 0.000000 -0.000001 -0.000001 0.000000 -0.000001 0.000000 0.000000 -0.000000 0.000002 -0.000000 0.000000 0.000000 0.000000 -0.000000 0.000000 0.000000 -0.000000 0.000000 0.000000 -0.000000 0.000002 -0.000000 -0.000000 0.000000 0.000000 -0.000000 0.000000 0.000000 -0.000000 0.000000 0.000000 -0.000000 0.000002 -0.000000 -0.000000 0.000000 0.000000 0.000000 0.000000 0.000000 0.000000 0.000000 0.000000 0.000000 
-0.133453 67.339546 -0.151605 5.287177 -12.268576 0.229707 0.000000 0.000001 -0.000000 -33.287460 0.976694 7.281093 32.175396 4.979329 1.977525 -3.432341 0.665210 -6.298161 0.000000 -0.000000 0.000000 -0.000002 0.000000 -0.000000 -16.434414 -13.745164 -13.293601 35.550943 -7.145511 2.873936 -21.642962 -1.300721 10.454125 -0.000000 -0.000000 -0.000000 -0.000000 0.000003 0.000001 25.026793 2.155310 -0.324162 2.621869 2.615958 -1.008145 2.525314 2.679258 -0.945522 -13.664874 -0.705723 3.072719 -13.806547 4.821533 -4.363127 0.000000 0.000000 -0.000000 0.000000 0.000000 -0.000000 0.000000 0.000000 -0.000000 0.000000 0.000000 -0.000000 -0.000001 0.000000 -0.000000 0.000000 0.000000 -0.000000 -0.000001 0.000000 -0.000000 0.000000 0.000000 -0.000000 0.000000 0.000000 -0.000000 3.483697 -25.237026 8.266129 -28.904893 -0.862373 -83.150040 0.000026 -42.816185 -2.796098 -13.781691 -9.691618 -14.460255 -7.633065 4.923874 -7.923425 31.878948 23.862096 -0.369588 -0.000003 0.000001 -0.000000 -2.424863 10.275133 -78.154679 -0.424086 2.843761 -47.154294 0.000001 -0.000002 -0.000002 2.548206 15.732116 -86.344506 0.017947 0.022010 -72.722588 0.000001 -0.000003 0.000000 -5.756424 20.473866 -77.393188 -0.062876 1.022364 -53.756020 -0.000002 -0.000001 -0.000002 -15.425912 20.452155 -49.328190 -0.006352 0.385455 -77.400202 -0.000000 -0.000001 0.000001 0.000001 -0.000000 -0.000001 15.256314 27.110624 -22.008666 -44.711542 -4.847825 84.505300 -0.000008 60.479802 6.128856 -18.715777 16.603367 2.284971 9.786385 1.040144 -10.965438 16.489784 -43.666349 16.236840 -0.000001 -0.000003 0.000000 17.032957 1.893675 31.298761 -0.430325 -0.423009 112.816639 -0.000001 -0.000001 0.000002 9.308265 -4.851938 102.834761 0.014969 -0.019214 61.018485 0.000001 -0.000001 -0.000001 5.532120 -9.005599 107.501119 0.542170 -0.010888 41.263710 0.000001 0.000000 -0.000002 6.750933 -16.990946 98.634461 0.007425 -0.015755 43.845720 -0.000000 0.000001 -0.000003 -0.000000 -0.000001 0.000002 -0.000004 0.000000 -0.000000 -0.000000 -0.000000 0.000000 -0.000004 0.000000 -0.000000 -0.000004 0.000000 -0.000000 -0.000004 0.000000 -0.000000 -0.000000 -0.000000 -0.000000 -0.000004 0.000000 -0.000000 -0.000004 0.000000 -0.000000 -0.000004 0.000000 -0.000000 -0.000000 -0.000000 -0.000000 0.000000 0.000001 -0.000000 0.000000 0.000001 -0.000000 0.000000 0.000001 -0.000000 
-0.255817 66.749031 -0.451074 5.435481 -8.096751 0.001240 0.000000 -0.000001 -0.000000 -35.745635 -0.694020 5.881333 34.442352 3.084166 2.347407 -3.634446 0.684974 -6.136776 0.000000 0.000000 0.000000 0.000000 0.000000 0.000000 -18.419089 -13.784442 -12.986421 40.570012 -6.822997 1.265532 -24.000856 -1.375458 11.162617 -0.000000 -0.000002 0.000000 0.000000 -0.000001 -0.000001 26.461695 2.203237 0.380900 2.310970 3.423880 -1.352929 2.183616 3.477247 -1.274837 -14.534668 -2.388502 3.633498 -14.743091 1.146787 -5.040438 -0.000000 0.000000 0.000000 -0.000000 0.000000 0.000000 -0.000000 0.000000 0.000000 -0.000000 0.000000 -0.000000 -0.000000 0.000000 -0.000000 -0.000000 0.000000 -0.000000 -0.000000 0.000000 -0.000000 -0.000000 0.000000 0.000000 -0.000000 0.000000 0.000000 1.732588 -27.765091 8.782661 -28.666966 -1.716116 -79.679040 0.000023 -44.123589 -3.414913 -11.867746 -8.912639 -13.319328 -7.716237 6.463953 -8.262050 32.400741 22.227993 1.719727 0.000004 0.000002 0.000002 -1.338247 9.646788 -79.618859 -0.228790 2.727277 -47.293828 0.000000 -0.000003 0.000001 2.991888 15.293615 -87.165180 0.017934 0.021999 -72.641493 0.000001 0.000002 0.000001 -5.518906 19.141030 -77.949172 -0.101868 1.053897 -55.133335 0.000000 0.000001 -0.000006 -14.708088 19.571741 -52.400078 -0.029248 0.563871 -76.768389 0.000000 -0.000000 0.000003 0.000001 0.000000 0.000001 14.585235 26.298047 -18.972129 -46.166734 -5.346218 83.852218 0.000044 64.081128 5.332584 -19.050596 17.050358 0.358259 9.991624 0.347194 -10.877498 16.609422 -43.817030 16.397744 -0.000000 -0.000002 0.000003 16.884298 2.754891 31.034460 -0.524515 -0.466938 112.818244 -0.000000 -0.000001 0.000004 9.346643 -4.779684 102.869991 0.014967 -0.019215 61.018485 -0.000000 0.000000 -0.000002 5.518866 -9.031043 107.568280 0.542166 -0.010886 41.263717 -0.000000 -0.000003 -0.000000 6.846436 -16.925400 98.787259 0.007426 -0.015753 43.845723 -0.000001 -0.000001 0.000002 -0.000001 0.000000 -0.000002 -0.000002 0.000000 -0.000000 -0.000002 0.000000 -0.000000 -0.000002 0.000000 -0.000000 -0.000002 0.000000 -0.000000 -0.000002 0.000000 -0.000000 -0.000002 0.000000 -0.000000 -0.000002 0.000000 -0.000000 -0.000002 0.000000 -0.000000 -0.000002 0.000000 -0.000000 -0.000002 0.000000 -0.000000 0.000000 -0.000001 -0.000000 0.000000 -0.000001 -0.000000 0.000000 -0.000001 -0.000000 
